<?xml version="1.0" standalone="no"?>
<!DOCTYPE svg PUBLIC "-//W3C//DTD SVG 20010904//EN"
 "http://www.w3.org/TR/2001/REC-SVG-20010904/DTD/svg10.dtd">
<svg version="1.0" xmlns="http://www.w3.org/2000/svg"
 width="1280.000000pt" height="1280.000000pt" viewBox="0 0 1280.000000 1280.000000"
 preserveAspectRatio="xMidYMid meet">
<metadata>
Created by potrace 1.16, written by Peter Selinger 2001-2019
</metadata>
<g transform="translate(0.000000,1280.000000) scale(0.100000,-0.100000)"
fill="#000000" stroke="none">
<path d="M5095 12419 c-759 -38 -1506 -267 -2156 -660 -477 -288 -934 -699
-1278 -1148 -483 -631 -806 -1423 -905 -2216 -35 -277 -36 -384 -36 -4026 0
-3608 0 -3627 20 -3692 34 -109 109 -194 217 -245 52 -24 69 -27 168 -27 99 0
116 3 168 27 110 52 199 162 226 279 7 29 11 1257 11 3651 0 2435 3 3648 11
3735 63 773 345 1482 836 2099 115 144 418 446 568 566 589 469 1271 748 2014
823 127 13 226 16 435 12 287 -5 398 -17 652 -72 1704 -369 2947 -1808 3064
-3550 8 -110 10 -1120 8 -3260 l-3 -3101 -925 653 c-563 398 -947 661 -980
675 -44 18 -75 23 -155 23 -94 0 -105 -2 -167 -33 -88 -43 -152 -106 -191
-190 -30 -63 -32 -74 -32 -177 0 -104 2 -114 32 -175 18 -36 53 -86 80 -111
60 -58 2529 -1824 2598 -1859 44 -22 63 -25 155 -25 98 0 109 2 160 30 83 46
2538 1801 2593 1854 27 25 62 75 80 111 30 61 32 71 32 175 0 105 -2 113 -34
180 -106 215 -359 305 -557 197 -27 -16 -458 -319 -957 -675 -498 -356 -909
-647 -912 -647 -2 0 -6 1452 -8 3228 -3 3554 2 3289 -63 3671 -191 1140 -797
2169 -1703 2895 -741 594 -1692 959 -2617 1006 -216 11 -227 11 -449 -1z"/>
</g>
</svg>
